<?xml version="1.0" encoding="iso-8859-1"?>
<!DOCTYPE svg PUBLIC "-//W3C//DTD SVG 1.1//EN" "http://www.w3.org/Graphics/SVG/1.1/DTD/svg11.dtd">
<svg 
 version="1.1" xmlns="http://www.w3.org/2000/svg" xmlns:xlink="http://www.w3.org/1999/xlink" x="0px" y="0px" width="512px"
	 height="512px" viewBox="0 0 512 512" style="enable-background:new 0 0 512 512;" xml:space="preserve"
><g id="afcae5a789ccd549f9c6e2a2f80b8186"><g></g><g fill="#000000"><path style="display: inline;" d="M44.552,0.5v511h422.896V0.5H44.552z M115.035,476.26H79.793v-35.242h35.242V476.26z
		 M115.035,335.294H79.793v-35.242h35.242V335.294z M115.035,194.328H79.793v-35.242h35.242V194.328z M115.035,70.983H79.793V35.741
		h35.242V70.983z M361.724,476.26H150.276V273.62h211.448V476.26z M361.724,238.38H150.276V35.741h211.448V238.38z M432.208,476.26
		h-35.242v-35.242h35.242V476.26z M432.208,335.294h-35.242v-35.242h35.242V335.294z M432.208,194.328h-35.242v-35.242h35.242
		V194.328z M432.208,70.983h-35.242V35.741h35.242V70.983z"></path></g></g></svg>