<?xml version="1.0" encoding="iso-8859-1"?>
<!DOCTYPE svg PUBLIC "-//W3C//DTD SVG 1.1//EN" "http://www.w3.org/Graphics/SVG/1.1/DTD/svg11.dtd">
<svg 
 version="1.1" xmlns="http://www.w3.org/2000/svg" xmlns:xlink="http://www.w3.org/1999/xlink" x="0px" y="0px" width="512px"
	 height="512px" viewBox="0 0 512 512" enable-background="new 0 0 512 512" xml:space="preserve"
><g id="b75708d097f2188dff6617b0f00ecee8"><g></g><path display="inline" d="M499.288,415.117l-76.21,60.964c-16.283,13.03-29.609,6.624-29.609-14.23v-27.085h-27.086
		c-66.147,0-110.723-33.144-146.135-75.316c18.79-23.525,34.661-47.966,48.95-70.016c0.999-1.544,1.931-2.962,2.909-4.465
		c29.017,39.936,55.219,63.122,94.275,63.122h27.086v-27.085c0-20.854,13.326-27.261,29.609-14.23l76.21,60.964
		C515.571,380.769,515.571,402.088,499.288,415.117z M127.935,228.142c4.486-6.692,9.099-13.683,13.977-21.21
		c11.236-17.333,23.139-35.677,36.375-53.555c-34.322-37.523-77.792-67.971-138.401-74.718
		C22.872,104.728,9.509,133.375,0.5,163.909h13.771C63.664,163.909,95.765,187.321,127.935,228.142z M366.383,163.909h27.086v27.085
		c0,20.856,13.326,27.26,29.609,14.23l76.21-60.963c16.283-13.03,16.283-34.349,0-47.379l-76.21-60.964
		c-16.283-13.029-29.609-6.625-29.609,14.231v27.085h-27.086c-101.682,0-152.425,78.297-197.195,147.376
		c-49.791,76.831-85.061,123.479-154.917,123.479H0.5c9.009,30.524,22.361,59.166,39.369,85.225
		c104.83-11.659,158.408-94.218,202.058-161.566C285.254,204.887,314.45,163.909,366.383,163.909z"></path></g></svg>