<?xml version="1.0" encoding="iso-8859-1"?>
<!DOCTYPE svg PUBLIC "-//W3C//DTD SVG 1.1//EN" "http://www.w3.org/Graphics/SVG/1.1/DTD/svg11.dtd">
<svg 
 version="1.1" xmlns="http://www.w3.org/2000/svg" xmlns:xlink="http://www.w3.org/1999/xlink" x="0px" y="0px" width="512px"
	 height="512px" viewBox="0 0 512 512" style="enable-background:new 0 0 512 512;" xml:space="preserve"
><g id="afcae5a789ccd549f9c6e2a2f815b093"><g></g><path style="display: inline;" d="M229.968,65.532l-86.221-37.011c10.328-23.572,37.998-34.391,61.81-24.167
		C229.362,14.575,240.296,41.964,229.968,65.532z M164.524,214.88L78.31,177.868c-10.325,23.568,0.604,50.958,24.411,61.177
		C126.533,249.27,154.199,238.452,164.524,214.88z M228.42,466.526l129.099-232.034c1.676-4.398,5.934-7.535,10.958-7.535
		c2.656,0,5.076,0.901,7.045,2.371c1.245-7.597,6.177-13.914,12.957-17.152L226.265,73.982l-5.647,12.894l-3.631,125.181
		L44.552,138.022l89.845-88.163l9.351-21.338l86.221,37.012l9.533-10.963l170.157,144.971l-0.104,0.121
		c3.628,1.979,6.112,5.752,6.112,10.142c0,2.132-0.619,4.104-1.631,5.822c4.921,4.262,8.094,10.453,8.094,17.435
		c0,6.647-2.853,12.604-7.372,16.843c4.316,1.721,7.372,5.887,7.372,10.773c0,2.964-1.152,5.634-2.993,7.686L308.841,466.608
		c89.738,4.364,157.338,22.763,158.607,44.892H68.183C69.462,489.237,137.866,470.749,228.42,466.526z M255.694,465.714
		c4.012-0.059,8.046-0.097,12.121-0.097c4.942,0,9.825,0.059,14.675,0.138l116.548-209.479c-0.138,0.002-0.265,0.042-0.402,0.042
		c-8.576,0-16-4.598-20.102-11.387L255.694,465.714z"></path></g></svg>